<?xml version="1.0" encoding="UTF-8" standalone="no"?>
<svg
   xmlns:dc="http://purl.org/dc/elements/1.1/"
   xmlns:cc="http://creativecommons.org/ns#"
   xmlns:rdf="http://www.w3.org/1999/02/22-rdf-syntax-ns#"
   xmlns:svg="http://www.w3.org/2000/svg"
   xmlns="http://www.w3.org/2000/svg"
   xmlns:sodipodi="http://sodipodi.sourceforge.net/DTD/sodipodi-0.dtd"
   xmlns:inkscape="http://www.inkscape.org/namespaces/inkscape"
   version="1.0"
   width="629.19293"
   height="628.42987"
   viewBox="0 0 6291.9293 6284.2987"
   preserveAspectRatio="xMidYMid meet"
   id="svg65"
   sodipodi:docname="logo.svg"
   inkscape:export-filename="I:\parithon\RVLCS\src\RVLCS.Web\wwwroot\img\logo.png"
   inkscape:export-xdpi="19.859016"
   inkscape:export-ydpi="19.859016"
   inkscape:version="0.92.4 (5da689c313, 2019-01-14)">
  <metadata
     id="metadata71">
    <rdf:RDF>
      <cc:Work
         rdf:about="">
        <dc:format>image/svg+xml</dc:format>
        <dc:type
           rdf:resource="http://purl.org/dc/dcmitype/StillImage" />
        <dc:title></dc:title>
      </cc:Work>
    </rdf:RDF>
  </metadata>
  <defs
     id="defs69" />
  <sodipodi:namedview
     pagecolor="#ffffff"
     bordercolor="#666666"
     borderopacity="1"
     objecttolerance="10"
     gridtolerance="10"
     guidetolerance="10"
     inkscape:pageopacity="0"
     inkscape:pageshadow="2"
     inkscape:window-width="1920"
     inkscape:window-height="1137"
     id="namedview67"
     showgrid="false"
     inkscape:zoom="0.90509668"
     inkscape:cx="142.73525"
     inkscape:cy="242.1499"
     inkscape:window-x="1672"
     inkscape:window-y="-8"
     inkscape:window-maximized="1"
     inkscape:current-layer="svg65"
     fit-margin-top="0"
     fit-margin-left="0"
     fit-margin-right="0"
     fit-margin-bottom="0" />
  <path
     inkscape:connector-curvature="0"
     style="fill:#000000;stroke:none"
     id="path4"
     d="m 5516.5936,6265.299 c -28,-12 -223,-202 -627,-606 -472,-472 -590,-596 -604,-630 -18,-49 -15,-131 6,-182 l 14,-31 -526,-526 c -289,-289 -530,-526 -535,-526 -4,0 -26,12 -47,26 -204,139 -471,248 -756,308 -193,41 -580,38 -785,-6 -551,-117 -1016.99999,-432 -1318.99999,-893 -167,-255 -273.000004,-537 -322.000004,-854 -19.0000002,-125 -21.0000002,-396 -4,-521 50,-376 194.000004,-729 415.000004,-1019.00001 109,-144 323,-345 477,-450 526.99999,-356.9999971 1208.99999,-451.999997 1803.99999,-253 454,152 817,428 1076,817 455,684.00001 465,1542.00001 27,2248.00001 l -50,81 529,529 529,529 34,-18 c 54,-29 143,-25 199,8 25,15 298,281 626,610 630,632 624,625 611,718 -11,82 -40,119 -304,382 -277,275 -282,278 -383,278 -25,0 -63,-9 -85,-19 z m 359,-390 c 196,-196 239,-244 239,-266 0,-23 -94,-121 -574,-601 -368,-368 -581,-574 -594,-574 -23,0 -515,487 -515,510 0,8 260,275 577,592 458,458 583,578 603,578 20,0 79,-53 264,-239 z m -1561,-1833 -383,-383 -135,135 -135,135 382,382 383,383 135,-135 135,-135 z m -2039,-93 c 256,-34 479,-102 666,-203 368,-198 650,-489 831,-857 345,-703 208,-1572 -335,-2134.00001 -300,-309 -639,-486 -1091,-567 -120,-22 -416,-24 -540,-5 -295,46 -576,155 -800,309 -410.99999,284 -691.99999,694.00001 -793.99999,1157.00001 -54,245 -56,565 -5,815 48,235 190,548 328,725 254,328 531.99999,532 895.99999,663 266,95 584,132 844,97 z m 1374,-253 c 59,-60 118,-121 131,-135 l 25,-28 -69,-69 c -38,-39 -73,-70 -76,-70 -4,0 -66,59 -139,132 l -131,131 73,74 c 40,40 74,73 75,73 2,0 52,-49 111,-108 z"
     inkscape:export-xdpi="8.4018917"
     inkscape:export-ydpi="8.4018917" />
  <path
     inkscape:connector-curvature="0"
     style="fill:#000000;stroke:none"
     id="path6"
     d="m 5421.5936,5779.299 -105,-105 60,-60 60,-60 110,110 109,110 -54,55 c -30,30 -59,55 -65,55 -6,0 -57,-47 -115,-105 z"
     inkscape:export-xdpi="8.4018917"
     inkscape:export-ydpi="8.4018917" />
  <path
     inkscape:connector-curvature="0"
     style="fill:#000000;stroke:none"
     id="path8"
     d="m 4926.5936,5284.299 -300,-300 60,-60 60,-60 305,305 305,305 -55,55 c -30,30 -59,55 -65,55 -5,0 -145,-135 -310,-300 z"
     inkscape:export-xdpi="8.4018917"
     inkscape:export-ydpi="8.4018917" />
  <path
     inkscape:connector-curvature="0"
     style="fill:#000000;stroke:none"
     id="path10"
     d="m 1721.5936,3722.299 v -85 l 83,-6 c 208,-15 487,-174 751,-428 l 116,-111 57,52 c 32,29 59,56 61,60 4,12 -232,235 -311,293 -264,196 -474,290 -674,304 l -83,6 z"
     inkscape:export-xdpi="8.4018917"
     inkscape:export-ydpi="8.4018917" />
  <path
     inkscape:connector-curvature="0"
     style="fill:#000000;stroke:none"
     id="path12"
     d="m 2742.5936,3648.299 -53,-65 99,-97 c 108,-106 204,-213 274,-307 96,-128 213,-347 260,-489 11,-34 24,-64 27,-68 7,-7 146,32 158,44 9,9 -60,177 -126,309 -130,258 -309,492 -520,679 l -66,58 z"
     inkscape:export-xdpi="8.4018917"
     inkscape:export-ydpi="8.4018917" />
  <path
     inkscape:connector-curvature="0"
     style="fill:#000000;stroke:none"
     id="path14"
     d="m 1626.5936,3438.299 c -11,-3 -52,-14 -91,-26 l -71,-21 35,-76 c 19,-42 35,-77 36,-78 1,-1 28,8 61,19 90,30 213,22 300,-21 147,-72 357,-230 462,-345 157,-173 283,-409 333,-627 l 22,-96 81,17 c 82,16 82,16 79,45 -7,59 -74,262 -119,359 -144,316 -405,593 -724,769 -122,67 -296,102 -404,81 z"
     inkscape:export-xdpi="8.4018917"
     inkscape:export-ydpi="8.4018917" />
  <path
     inkscape:connector-curvature="0"
     style="fill:#000000;stroke:none"
     id="path16"
     d="m 838.59361,3222.299 c -19,-46 -40,-108 -46,-138 -16,-76 -30,-230 -24,-263 6,-30 25,-33 117,-21 l 46,7 v 52 c 0,77 27,205 60,286 15.99999,40 26.99999,76 24.99999,80 -5,7 -130.99999,79 -138.99999,79 -2,0 -19,-37 -39,-82 z"
     inkscape:export-xdpi="8.4018917"
     inkscape:export-ydpi="8.4018917" />
  <path
     inkscape:connector-curvature="0"
     style="fill:#000000;stroke:none"
     id="path18"
     d="m 1649.5936,3070.299 c -77,-28 -127,-79 -147,-151 -35,-129 13,-215 179,-315 147,-88 291,-265 354,-432 36,-96 57,-219 57,-343 0,-139 -22,-254 -77,-408 -37,-104 -32,-160 23,-240 87,-126 282,-121 373,10 25,36 81,212 104,325 56,277 37,604 -47,829 -104,277 -301,508 -565,666 -124,73 -179,86 -254,59 z m 180,-213 c 115,-73 258,-203 335,-307 209,-283 265,-631 171,-1056 -47,-210 -79,-262 -139,-230 -36,19 -39,47 -15,120 57,169 71,242 77,396 9,227 -22,386 -108,556 -85,169 -234,327 -404,427 -63,38 -85,62 -85,92 0,29 31,59 61,59 9,0 57,-26 107,-57 z"
     inkscape:export-xdpi="8.4018917"
     inkscape:export-ydpi="8.4018917" />
  <path
     inkscape:connector-curvature="0"
     style="fill:#000000;stroke:none"
     id="path20"
     d="m 2931.5936,2887.299 c -30,-19 -61,-38 -68,-42 -10,-6 -3,-25 28,-83 62,-115 127,-288 154,-411 33,-146 56,-302 56,-377 v -60 h 85 c 99,0 91,-19 74,173 -14,162 -39,285 -93,449 -43,132 -144,356 -169,375 -8,7 -30,-1 -67,-24 z"
     inkscape:export-xdpi="8.4018917"
     inkscape:export-ydpi="8.4018917" />
  <path
     inkscape:connector-curvature="0"
     style="fill:#000000;stroke:none"
     id="path22"
     d="m 1213.5936,2762.299 c -36,-6 -66,-16 -69,-23 -8,-23 24,-116 64,-184 52,-88 133,-166 237,-230 103,-63 175,-131 217,-207 17,-30 34,-54 37,-54 4,0 39,13 78,28 l 71,27 -27,56 c -57,118 -125,190 -270,284 -135,87 -203,166 -239,278 -7,20 -18,36 -24,36 -7,-1 -40,-6 -75,-11 z"
     inkscape:export-xdpi="8.4018917"
     inkscape:export-ydpi="8.4018917" />
  <path
     inkscape:connector-curvature="0"
     style="fill:#000000;stroke:none"
     id="path24"
     d="m 418.59361,2757.299 c -25,-24 17,-241 74,-384 90,-225 232,-412 439,-580 l 45,-36 -17,-69 c -72,-285 -74,-452 -8,-708.00001 16,-63 42,-142 56.99999,-175 l 28,-61 70,36 c 39,20 72,38 74,40 2,2 -10,39 -28,83 -66,169.00001 -88,329.00001 -71,519.00001 11,127 22,175 72,320 24,69 30,96 21,99 -40,14 -174.99999,114 -245.99999,182 -184,177 -307,413 -347,664 l -13,77 h -72 c -39,0 -75,-3 -78,-7 z"
     inkscape:export-xdpi="8.4018917"
     inkscape:export-ydpi="8.4018917" />
  <path
     inkscape:connector-curvature="0"
     style="fill:#000000;stroke:none"
     id="path26"
     d="m 939.59361,2468.299 c -38,-19 -68,-41 -68,-48 0,-28 118,-191 181.99999,-253 36,-34 110,-91 165,-127 88,-57 104,-71 127,-117 35,-71 33,-117 -8,-247 -64,-197 -70,-228 -69,-362 0,-142 27,-267 84,-391.00001 l 32,-69 66,36 c 36,20 69,40 74,44 4,3 -7,37 -24,75.00001 -42,94 -59,180 -59,310 0,124 16,211 55,305 14,36 31,103 37,150 15,113 1,180 -55,263 -35,51 -61,75 -154,137 -136,91 -197,150 -265,253 -28,42 -52,77 -52,77 -1,-1 -30.99999,-17 -67.99999,-36 z"
     inkscape:export-xdpi="8.4018917"
     inkscape:export-ydpi="8.4018917" />
  <path
     inkscape:connector-curvature="0"
     style="fill:#000000;stroke:none"
     id="path28"
     d="m 3472.5936,2446.299 -63,-16 5,-45 c 3,-26 14,-98 25,-161 12,-64 24,-180 28,-258 l 7,-142 h 56 c 31,0 66,-3 79,-6 22,-6 22,-6 22,108 0,147 -15,306 -42,436 -23,115 -16,109 -117,84 z"
     inkscape:export-xdpi="8.4018917"
     inkscape:export-ydpi="8.4018917" />
  <path
     inkscape:connector-curvature="0"
     style="fill:#000000;stroke:none"
     id="path30"
     d="m 1727.5936,1793.299 c -17,-121 -29,-176 -57,-259 -40,-121 -50,-266 -25,-355 11,-35 22,-55 29,-52 7,2 39,14 72,26 l 61,22 -1,122 c 0,111 3,130 31,212 33,94 49,164 58,253 5,49 4,52 -18,52 -13,0 -50,3 -84,6 l -61,7 z"
     inkscape:export-xdpi="8.4018917"
     inkscape:export-ydpi="8.4018917" />
  <path
     inkscape:connector-curvature="0"
     style="fill:#000000;stroke:none"
     id="path32"
     d="m 2702.5936,1467.299 c -59,-291 -124,-420 -253,-503.00001 -123,-80 -275,-91 -403,-30 -36,17 -80,44 -98,60 l -32,28.00001 -62,-59.00001 -62,-58 47,-40 c 108,-93 280,-149 417,-137 162,14 277,67 388,181 83,85 130,176.00001 181,351.00001 26,93 66,265 66,289 0,1 -24,5 -53,8 -29,4 -67,9 -84,13 l -30,6 z"
     inkscape:export-xdpi="8.4018917"
     inkscape:export-ydpi="8.4018917" />
  <path
     inkscape:connector-curvature="0"
     style="fill:#000000;stroke:none"
     id="path34"
     d="m 3441.5936,1472.299 c 0,-40 -72,-345 -105,-447 -24,-75.00001 -41,-139.00001 -37,-143.00001 4,-4 37,-18 74,-32 l 68,-26 16,38 c 42,100 113,363.00001 135,500.00001 14,86 14,87 -69,97 -30,4 -61,9 -69,12 -7,3 -13,3 -13,1 z"
     inkscape:export-xdpi="8.4018917"
     inkscape:export-ydpi="8.4018917" />
  <path
     inkscape:connector-curvature="0"
     style="fill:#000000;stroke:none"
     id="path36"
     d="m 3055.5936,1377.299 c -73,-319 -153,-491.00001 -289,-622.00001 l -64,-62 50,-64 c 41,-53 54,-63 68,-56 39,21 169,171 214,246 61,103 117,248.00001 156,402.00001 17,67 31,128 31,136 0,9 -22,18 -65,25 -35,7 -71,15 -79,18 -11,4 -17,-3 -22,-23 z"
     inkscape:export-xdpi="8.4018917"
     inkscape:export-ydpi="8.4018917" />
  <path
     inkscape:connector-curvature="0"
     style="fill:#000000;stroke:none"
     id="path38"
     d="m 1634.5936,678.29899 c -26,-30 -48,-61 -48,-67 0,-31 184,-145 311,-193 120,-45 364,-68 469,-45 34,7 35,19 15,115 l -10,51 -124,-3 c -101,-3 -139,0 -207,17 -99,25 -223,84 -297,141 -29,22 -54,40 -57,40 -2,0 -25,-25 -52,-56 z"
     inkscape:export-xdpi="8.4018917"
     inkscape:export-ydpi="8.4018917" />
  <path
     inkscape:connector-curvature="0"
     style="fill:#000000;stroke:none"
     id="path40"
     d="m 83.593606,6142.299 3,-83 2397.999994,-3 2397,-2 v 85 85 h -2400 H 80.593606 Z"
     inkscape:export-xdpi="8.4018917"
     inkscape:export-ydpi="8.4018917" />
  <path
     inkscape:connector-curvature="0"
     style="fill:#000000;stroke:none"
     id="path42"
     d="m 81.593606,5604.299 v -80 h 2169.999994 2170 v 80 80 h -2170 H 81.593606 Z"
     inkscape:export-xdpi="8.4018917"
     inkscape:export-ydpi="8.4018917" />
  <path
     inkscape:connector-curvature="0"
     style="fill:#000000;stroke:none"
     id="path44"
     d="m 81.593606,5069.299 v -85 h 1929.999994 1930 v 85 85 h -1930 H 81.593606 Z"
     inkscape:export-xdpi="8.4018917"
     inkscape:export-ydpi="8.4018917" />
  <path
     inkscape:connector-curvature="0"
     style="fill:#000000;stroke:none"
     id="path46"
     d="m 81.593606,4529.299 v -85 h 1754.999994 1755 v 85 85 h -1755 H 81.593606 Z"
     inkscape:export-xdpi="8.4018917"
     inkscape:export-ydpi="8.4018917" />
  <path
     inkscape:connector-curvature="0"
     style="fill:#000000;stroke:none"
     id="path48"
     d="m 4901.5936,3989.299 v -85 h 620 620 v 85 85 h -620 -620 z"
     inkscape:export-xdpi="8.4018917"
     inkscape:export-ydpi="8.4018917" />
  <path
     inkscape:connector-curvature="0"
     style="fill:#000000;stroke:none"
     id="path50"
     d="m 4381.5936,3454.299 v -90 h 880 881 l -3,88 -3,87 -877,3 -878,2 z"
     inkscape:export-xdpi="8.4018917"
     inkscape:export-ydpi="8.4018917" />
  <path
     inkscape:connector-curvature="0"
     style="fill:#000000;stroke:none"
     id="path52"
     d="m 4251.5936,2919.299 v -85 h 945 945 v 85 85 h -945 -945 z"
     inkscape:export-xdpi="8.4018917"
     inkscape:export-ydpi="8.4018917" />
  <path
     inkscape:connector-curvature="0"
     style="fill:#000000;stroke:none"
     id="path54"
     d="m 4381.5936,2379.299 v -85 h 880 880 v 85 85 h -880 -880 z"
     inkscape:export-xdpi="8.4018917"
     inkscape:export-ydpi="8.4018917" />
  <path
     inkscape:connector-curvature="0"
     style="fill:#000000;stroke:none"
     id="path56"
     d="m 4381.5936,1839.299 v -85 h 880 880 v 85 85 h -880 -880 z"
     inkscape:export-xdpi="8.4018917"
     inkscape:export-ydpi="8.4018917" />
  <path
     inkscape:connector-curvature="0"
     style="fill:#000000;stroke:none"
     id="path58"
     d="m 4291.5936,1304.299 v -90 h 925 925 v 90 90 h -925 -925 z"
     inkscape:export-xdpi="8.4018917"
     inkscape:export-ydpi="8.4018917" />
  <path
     inkscape:connector-curvature="0"
     style="fill:#000000;stroke:none"
     id="path60"
     d="m 4051.5936,764.29899 v -90 h 1045 1045 v 90 90 h -1045 -1045 z"
     inkscape:export-xdpi="8.4018917"
     inkscape:export-ydpi="8.4018917" />
  <path
     inkscape:connector-curvature="0"
     style="fill:#000000;stroke:none"
     id="path62"
     d="m 3381.5936,229.29899 v -85 h 1380 1380 v 85 85 h -1380 -1380 z"
     inkscape:export-xdpi="8.4018917"
     inkscape:export-ydpi="8.4018917" />
  <g
     inkscape:groupmode="layer"
     id="layer1"
     inkscape:label="Layer 1"
     style="display:inline"
     transform="translate(-858.40639,-465.70101)" />
</svg>
